{
    "asset" : {
        "generator" : "Khronos glTF Blender I/O v1.5.17",
        "version" : "2.0"
    },
    "scene" : 0,
    "scenes" : [
        {
            "name" : "Scene",
            "nodes" : [
                3
            ]
        }
    ],
    "nodes" : [
        {
            "name" : "Bone.001",
            "rotation" : [
                -0.46407997608184814,
                -0.18805502355098724,
                -0.03570925444364548,
                0.8648641109466553
            ],
            "scale" : [
                1,
                1,
                0.9999999403953552
            ],
            "translation" : [
                0,
                2.589531421661377,
                0
            ]
        },
        {
            "children" : [
                0
            ],
            "name" : "Bone",
            "rotation" : [
                0.7071068286895752,
                8.429369557916289e-08,
                8.429368847373553e-08,
                0.7071068286895752
            ],
            "scale" : [
                1,
                0.9999998807907104,
                0.9999998807907104
            ]
        },
        {
            "mesh" : 0,
            "name" : "Cube",
            "skin" : 0
        },
        {
            "children" : [
                2,
                1
            ],
            "name" : "Armature"
        }
    ],
    "materials" : [
        {
            "doubleSided" : true,
            "name" : "Material",
            "pbrMetallicRoughness" : {
                "baseColorFactor" : [
                    0.800000011920929,
                    0.800000011920929,
                    0.800000011920929,
                    1
                ],
                "metallicFactor" : 0,
                "roughnessFactor" : 0.4000000059604645
            }
        }
    ],
    "meshes" : [
        {
            "name" : "Cube",
            "primitives" : [
                {
                    "attributes" : {
                        "POSITION" : 0,
                        "NORMAL" : 1,
                        "TEXCOORD_0" : 2,
                        "JOINTS_0" : 3,
                        "WEIGHTS_0" : 4
                    },
                    "indices" : 5,
                    "material" : 0
                }
            ]
        }
    ],
    "skins" : [
        {
            "inverseBindMatrices" : 6,
            "joints" : [
                1,
                0
            ],
            "name" : "Armature"
        }
    ],
    "accessors" : [
        {
            "bufferView" : 0,
            "componentType" : 5126,
            "count" : 40,
            "max" : [
                1,
                1,
                5.228480339050293
            ],
            "min" : [
                -1,
                -1,
                -0.020151853561401367
            ],
            "type" : "VEC3"
        },
        {
            "bufferView" : 1,
            "componentType" : 5126,
            "count" : 40,
            "type" : "VEC3"
        },
        {
            "bufferView" : 2,
            "componentType" : 5126,
            "count" : 40,
            "type" : "VEC2"
        },
        {
            "bufferView" : 3,
            "componentType" : 5121,
            "count" : 40,
            "type" : "VEC4"
        },
        {
            "bufferView" : 4,
            "componentType" : 5126,
            "count" : 40,
            "type" : "VEC4"
        },
        {
            "bufferView" : 5,
            "componentType" : 5123,
            "count" : 84,
            "type" : "SCALAR"
        },
        {
            "bufferView" : 6,
            "componentType" : 5126,
            "count" : 2,
            "type" : "MAT4"
        }
    ],
    "bufferViews" : [
        {
            "buffer" : 0,
            "byteLength" : 480,
            "byteOffset" : 0
        },
        {
            "buffer" : 0,
            "byteLength" : 480,
            "byteOffset" : 480
        },
        {
            "buffer" : 0,
            "byteLength" : 320,
            "byteOffset" : 960
        },
        {
            "buffer" : 0,
            "byteLength" : 160,
            "byteOffset" : 1280
        },
        {
            "buffer" : 0,
            "byteLength" : 640,
            "byteOffset" : 1440
        },
        {
            "buffer" : 0,
            "byteLength" : 168,
            "byteOffset" : 2080
        },
        {
            "buffer" : 0,
            "byteLength" : 128,
            "byteOffset" : 2248
        }
    ],
    "buffers" : [
        {
            "byteLength" : 2376,
            "uri" : "data:application/octet-stream;base64,"
        }
    ]
}
